<?xml version="1.0" encoding="iso-8859-1"?>
<!-- Generator: Adobe Illustrator 19.0.0, SVG Export Plug-In . SVG Version: 6.00 Build 0)  -->
<svg version="1.1" id="Capa_1" xmlns="http://www.w3.org/2000/svg" xmlns:xlink="http://www.w3.org/1999/xlink" x="0px" y="0px"
	 viewBox="0 0 512 512" style="enable-background:new 0 0 512 512;" xml:space="preserve">
<g>
	<path style="fill:#A4A6AA;" d="M316,429.5c0,0,0,51.716,0,60s6.716,15,15,15s15-6.716,15-15s0-60,0-60H316z"/>
	<path style="fill:#A4A6AA;" d="M166,429.5c0,0,0,51.716,0,60s6.716,15,15,15s15-6.716,15-15s0-60,0-60H166z"/>
</g>
<polygon style="fill:#202833;" points="331,279.5 391,459.5 421,459.5 421,339.5 "/>
<polygon style="fill:#27414B;" points="91,339.5 91,459.5 391,459.5 391,279.5 "/>
<polygon style="fill:#DBFFFC;" points="91,7.5 151,339.5 361,339.5 421,7.5 "/>
<path style="fill:#55C7C2;" d="M391,45.562l-20,146.969L391,339.5h30V7.5C409.278,19.222,399.287,32.018,391,45.562z"/>
<path style="fill:#66FCF1;" d="M361,152.353V339.5h30V45.562C371.009,78.234,361,115.29,361,152.353z"/>
<g>
	<path style="fill:#FFFFFF;" d="M151,152.353C151,99.926,131,47.5,91,7.5v332h60V152.353z"/>
	<circle style="fill:#FFFFFF;" cx="331" cy="399.5" r="15"/>
	<circle style="fill:#FFFFFF;" cx="181" cy="399.5" r="15"/>
</g>
<rect x="226" y="384.5" style="fill:#DBEB63;" width="60" height="30"/>
<path d="M331,377c-12.406,0-22.5,10.094-22.5,22.5S318.594,422,331,422s22.5-10.094,22.5-22.5S343.406,377,331,377z M331,407
	c-4.136,0-7.5-3.364-7.5-7.5s3.364-7.5,7.5-7.5s7.5,3.364,7.5,7.5S335.136,407,331,407z"/>
<path d="M181,377c-12.406,0-22.5,10.094-22.5,22.5S168.594,422,181,422s22.5-10.094,22.5-22.5S193.406,377,181,377z M181,407
	c-4.136,0-7.5-3.364-7.5-7.5s3.364-7.5,7.5-7.5s7.5,3.364,7.5,7.5S185.136,407,181,407z"/>
<path d="M286,377h-60c-4.143,0-7.5,3.357-7.5,7.5v30c0,4.143,3.357,7.5,7.5,7.5h60c4.143,0,7.5-3.357,7.5-7.5v-30
	C293.5,380.357,290.143,377,286,377z M278.5,407h-45v-15h45V407z"/>
<path d="M428.462,6.758c-0.01-0.102-0.029-0.2-0.043-0.3c-0.02-0.142-0.037-0.284-0.065-0.425c-0.024-0.12-0.057-0.236-0.086-0.353
	c-0.03-0.12-0.056-0.24-0.092-0.358c-0.035-0.117-0.079-0.23-0.12-0.344c-0.042-0.116-0.08-0.234-0.127-0.348
	c-0.044-0.107-0.097-0.21-0.146-0.315c-0.055-0.117-0.107-0.235-0.169-0.35c-0.053-0.099-0.114-0.193-0.171-0.289
	c-0.068-0.114-0.132-0.229-0.207-0.34c-0.069-0.104-0.147-0.201-0.221-0.301c-0.072-0.096-0.139-0.195-0.216-0.289
	c-0.131-0.16-0.272-0.312-0.416-0.46c-0.028-0.029-0.051-0.06-0.079-0.088c-0.027-0.027-0.056-0.049-0.083-0.075
	c-0.15-0.146-0.304-0.288-0.466-0.421c-0.087-0.072-0.179-0.134-0.269-0.201c-0.106-0.08-0.211-0.162-0.321-0.236
	c-0.104-0.069-0.21-0.129-0.316-0.192c-0.104-0.063-0.207-0.128-0.315-0.186c-0.105-0.056-0.212-0.103-0.319-0.154
	c-0.115-0.055-0.229-0.112-0.348-0.161c-0.101-0.042-0.205-0.075-0.307-0.112c-0.128-0.047-0.255-0.095-0.386-0.135
	c-0.1-0.03-0.202-0.052-0.303-0.078c-0.136-0.035-0.271-0.073-0.41-0.1c-0.111-0.022-0.222-0.034-0.334-0.051
	c-0.13-0.02-0.259-0.043-0.392-0.056c-0.185-0.018-0.371-0.024-0.556-0.028C421.118,0.008,421.06,0,421,0H91
	c-0.06,0-0.118,0.008-0.178,0.009c-0.186,0.004-0.371,0.01-0.557,0.028c-0.133,0.013-0.261,0.037-0.392,0.056
	c-0.111,0.017-0.223,0.029-0.334,0.051c-0.139,0.027-0.274,0.065-0.41,0.1c-0.101,0.026-0.203,0.048-0.303,0.078
	c-0.131,0.04-0.257,0.088-0.385,0.135c-0.103,0.037-0.207,0.071-0.308,0.113c-0.118,0.049-0.232,0.106-0.347,0.161
	c-0.107,0.051-0.215,0.098-0.32,0.154c-0.108,0.058-0.21,0.123-0.315,0.186c-0.106,0.063-0.213,0.123-0.316,0.192
	c-0.111,0.074-0.215,0.156-0.321,0.236c-0.09,0.067-0.182,0.13-0.269,0.201c-0.162,0.133-0.316,0.275-0.466,0.421
	c-0.027,0.026-0.056,0.048-0.083,0.075c-0.028,0.028-0.052,0.059-0.079,0.088c-0.144,0.148-0.285,0.3-0.416,0.46
	c-0.077,0.094-0.144,0.192-0.216,0.289c-0.074,0.1-0.152,0.197-0.221,0.301c-0.074,0.111-0.139,0.226-0.207,0.34
	c-0.057,0.096-0.117,0.19-0.17,0.289c-0.062,0.115-0.114,0.234-0.17,0.352c-0.049,0.104-0.101,0.206-0.145,0.313
	c-0.048,0.115-0.087,0.233-0.128,0.35c-0.041,0.114-0.084,0.226-0.12,0.342c-0.036,0.118-0.062,0.238-0.092,0.358
	c-0.029,0.118-0.063,0.234-0.086,0.353c-0.028,0.141-0.045,0.283-0.065,0.425c-0.014,0.1-0.033,0.199-0.043,0.3
	c-0.025,0.25-0.038,0.5-0.038,0.749V459.5c0,4.143,3.357,7.5,7.5,7.5h67.5v22.5c0,12.406,10.094,22.5,22.5,22.5
	s22.5-10.094,22.5-22.5V467h105v22.5c0,12.406,10.094,22.5,22.5,22.5s22.5-10.094,22.5-22.5V467H421c4.143,0,7.5-3.357,7.5-7.5
	V7.505C428.5,7.256,428.487,7.006,428.462,6.758z M413.5,332h-45V152.353c0-46.326,15.859-90.211,45-125.467V332z M158.5,332
	V182.353c0-4.143-3.357-7.5-7.5-7.5s-7.5,3.357-7.5,7.5V332h-45V26.886c29.141,35.256,45,79.141,45,125.467
	c0,4.143,3.357,7.5,7.5,7.5s7.5-3.357,7.5-7.5c0-50.883-17.786-99.025-50.398-137.353h295.797
	C371.286,53.327,353.5,101.47,353.5,152.353V332H158.5z M188.5,489.5c0,4.136-3.364,7.5-7.5,7.5s-7.5-3.364-7.5-7.5V467h15V489.5z
	 M338.5,489.5c0,4.136-3.364,7.5-7.5,7.5s-7.5-3.364-7.5-7.5V467h15V489.5z M98.5,452V347h315v105H98.5z"/>
<g>
</g>
<g>
</g>
<g>
</g>
<g>
</g>
<g>
</g>
<g>
</g>
<g>
</g>
<g>
</g>
<g>
</g>
<g>
</g>
<g>
</g>
<g>
</g>
<g>
</g>
<g>
</g>
<g>
</g>
</svg>
