<svg width="65" height="65" viewBox="0 0 65 65" fill="none" xmlns="http://www.w3.org/2000/svg">
<g clip-path="url(#clip0)">
<path d="M44.0323 45.0806H20.9677V57.6612H44.0323V45.0806Z" fill="#45C1ED"/>
<path d="M44.0323 13.629H35.6452V38.7903H44.0323V13.629Z" fill="#45C1ED"/>
<path d="M52 43.2581V8.87097H48.8333V3.58065H41.4444V-1.70968H37.2222V-7H28.7778V-1.70968H24.5556V3.58065H17.1667V8.87097H14V43.2581H16.6019L20.3333 50.2717V67.0645H24.5556V75H41.4444V67.0645H45.6667V50.2717L49.3981 43.2581H52ZM49.8889 40.6129H45.6667V11.5161H49.8889V40.6129ZM43.5556 53.8387H22.4444V51.1936H26.8039H39.1961H43.5556V53.8387ZM37.6413 48.5484H28.3587L27.0446 43.2581H30.8889H35.1111H38.9554L37.6413 48.5484ZM43.5556 35.3226H37.2222V32.6774H43.5556V35.3226ZM43.5556 30.0323H37.2222V27.3871H43.5556V30.0323ZM43.5556 24.7419H37.2222V22.0968H43.5556V24.7419ZM43.5556 19.4516H37.2222V16.8065H43.5556V19.4516ZM43.5556 14.1613H37.2222V11.5161H43.5556V14.1613ZM35.1111 40.6129H30.8889V11.5161H35.1111V40.6129ZM28.7778 20.8086C27.8932 19.9687 26.8039 19.4516 25.6111 19.4516C24.4183 19.4516 23.329 19.9687 22.4444 20.8086V11.5161H28.7778V20.8086ZM28.7778 26.0645C28.7778 28.2521 27.357 30.0323 25.6111 30.0323C23.8652 30.0323 22.4444 28.2521 22.4444 26.0645C22.4444 23.877 23.8652 22.0968 25.6111 22.0968C27.357 22.0968 28.7778 23.877 28.7778 26.0645ZM22.4444 31.3205C23.329 32.1603 24.4183 32.6774 25.6111 32.6774C26.8039 32.6774 27.8932 32.1603 28.7778 31.3205V40.6129H24.1777H22.4444V31.3205ZM37.2222 40.6129V37.9677H43.5556V40.6129H41.8223H37.2222ZM30.8889 -4.35484H35.1111V-1.70968H30.8889V-4.35484ZM19.2778 6.22581H28.7778V3.58065H26.6667V0.935484H39.3333V3.58065H30.8889V6.22581H46.7222V8.87097H45.6667H35.1111H30.8889H20.3333H19.2778V6.22581ZM16.1111 11.5161H20.3333V40.6129H16.1111V11.5161ZM20.3333 43.2581H24.8342L26.1473 48.5484H21.9536L19.1384 43.2581H20.3333ZM39.3333 72.3548H26.6667V67.0645H39.3333V72.3548ZM22.4444 64.4194V61.7742H39.3333V59.129H22.4444V56.4839H43.5556V59.129H41.4444V61.7742H43.5556V64.4194H22.4444ZM44.0464 48.5484H39.8527L41.1658 43.2581H45.6667H46.8616L44.0464 48.5484Z" fill="#25B6D2"/>
</g>
<defs>
<clipPath id="clip0">
<rect width="65" height="65" fill="white"/>
</clipPath>
</defs>
</svg>
