<svg width="48" height="68" viewBox="0 0 48 68" fill="none" xmlns="http://www.w3.org/2000/svg">
<path d="M21 14.8963H21.75H22.5C22.5 14.6839 22.5 12.2411 21.525 10.9666C20.25 9.16105 21.15 7.24928 23.325 3.9568C23.4 3.85059 23.475 3.74438 23.55 3.63817C23.925 5.33752 24.75 6.61203 25.35 7.56791C26.175 8.84242 26.475 9.47967 26.325 10.2231C25.5 12.5597 25.5 14.7901 25.5 14.8963H27C27 14.8963 27 12.9846 27.675 11.0728C27.675 11.0728 27.675 10.9666 27.75 10.9666C28.275 8.84242 27.3 7.4617 26.475 6.08098C25.65 4.80647 24.75 3.42576 24.75 1.08916C24.75 0.558111 24.525 0.133275 24.15 0.0270657C23.775 -0.0791434 23.475 0.133275 23.325 0.558111C23.175 0.982947 22.65 1.72641 22.2 2.46987C20.625 4.91268 17.9251 8.84242 20.475 12.4535C20.925 13.0908 21 14.4715 21 14.8963Z" fill="#398860"/>
<path d="M37.8 65.8757L35.175 62.1585L31.575 46.8645L34.2 39.3238H29.775L27.075 27.9595L31.05 22.3305H27V17.0201H21V22.3305H16.95L20.925 27.9595L18.225 39.3238H13.8L16.425 46.8645L12.825 62.1585L10.2 65.8757H0V67.9999H8.7H39.3H48V65.8757H37.8ZM21 56.4232L18.375 47.8204H21V56.4232ZM20.925 61.6274H14.55L17.325 49.7321L20.925 61.6274ZM22.5 47.8204H25.5V61.6274H22.5V47.8204ZM27 47.8204H29.625L27 56.4232V47.8204ZM30.675 49.7321L33.45 61.6274H27.075L30.675 49.7321ZM25.5 28.703V39.3238H22.5V28.703H25.5ZM27 34.2258L28.2 39.3238H27V34.2258ZM22.5 19.1443H25.5V22.3305H22.5V19.1443ZM27.45 24.4547L25.95 26.5788H22.05L20.55 24.4547H27.45ZM21 34.2258V39.3238H19.8L21 34.2258ZM31.8 41.4479L30.3 45.6962H17.7L16.2 41.4479H31.8ZM12.3 65.8757L13.8 63.7516H21H27H34.2L35.7 65.8757H12.3Z" fill="#398860"/>
</svg>
