<?xml version="1.0" encoding="iso-8859-1"?>
<!-- Generator: Adobe Illustrator 19.0.0, SVG Export Plug-In . SVG Version: 6.00 Build 0)  -->
<svg version="1.1" id="Capa_1" xmlns="http://www.w3.org/2000/svg" xmlns:xlink="http://www.w3.org/1999/xlink" x="0px" y="0px"
	 viewBox="0 0 512.002 512.002" style="enable-background:new 0 0 512.002 512.002;" xml:space="preserve">
<g>
	<g>
		<path style="fill:#E3E5E5;" d="M119.702,94.926c27.712-23.473,61.56-39.924,98.799-46.602c12.17-2.184,24.702-3.324,37.5-3.324
			c25.051,0,49.082,4.367,71.374,12.379c35.172,12.639,66.014,34.356,89.703,62.324c23.473,27.711,39.922,61.561,46.602,98.799
			c2.183,12.17,3.322,24.701,3.322,37.5c0,25.051-4.365,49.082-12.377,71.373c-12.641,35.172-34.356,66.014-62.324,89.703
			c-27.712,23.473-61.561,39.922-98.8,46.602c-12.17,2.184-24.702,3.322-37.5,3.322c-25.05,0-49.081-4.365-71.374-12.377
			c-35.171-12.641-66.013-34.355-89.702-62.324c-23.473-27.711-39.923-61.561-46.602-98.799C46.14,281.332,45,268.801,45,256.002
			c0-25.051,4.365-49.082,12.378-71.375C70.018,149.457,91.734,118.615,119.702,94.926L119.702,94.926z M256.001,10
			C120.139,10,10,120.139,10,256.002c0,135.861,110.139,246,246.001,246s246.001-110.139,246.001-246
			C502.002,120.139,391.863,10,256.001,10z"/>
		<path style="fill:#E3E5E5;" d="M293.514,191.043c-11.034-6.387-23.847-10.041-37.513-10.041c-13.66,0-26.468,3.652-37.499,10.033
			c-11.383,6.584-20.873,16.074-27.46,27.453c-6.386,11.035-10.041,23.848-10.041,37.514c0,13.66,3.652,26.469,10.034,37.5
			c6.584,11.381,16.073,20.873,27.453,27.459c11.035,6.385,23.847,10.041,37.513,10.041c13.661,0,26.469-3.652,37.5-10.033
			c11.382-6.584,20.873-16.074,27.459-27.455c6.386-11.033,10.041-23.846,10.041-37.512c0-13.66-3.651-26.469-10.033-37.5
			C314.384,207.119,304.895,197.629,293.514,191.043L293.514,191.043z M256.001,216.002c22.092,0,40,17.908,40,40s-17.908,40-40,40
			c-22.091,0-40-17.908-40-40S233.91,216.002,256.001,216.002z"/>
	</g>
	<circle style="fill:#F95C4B;" cx="256" cy="256" r="40"/>
	<path style="fill:#37BBDA;" d="M256.001,181.002l71.374-123.623C305.083,49.367,281.052,45,256.001,45
		c-12.798,0-25.33,1.141-37.5,3.324l0.001,142.711C229.533,184.654,242.341,181.002,256.001,181.002z"/>
	<path style="fill:#69DAF4;" d="M218.502,191.035l-0.001-142.711c-37.239,6.678-71.087,23.129-98.799,46.602l17.843,30.904
		l53.497,92.658C197.629,207.109,207.119,197.619,218.502,191.035z"/>
	<path style="fill:#37BBDA;" d="M191.042,218.488l-53.497-92.658l-17.843-30.904c-27.968,23.689-49.685,54.531-62.324,89.701
		l123.623,71.375C181.001,242.336,184.656,229.523,191.042,218.488z"/>
	<path style="fill:#69DAF4;" d="M181.001,256.002L57.378,184.627C49.365,206.92,45,230.951,45,256.002
		c0,12.799,1.14,25.33,3.323,37.5h142.712C184.653,282.471,181.001,269.662,181.001,256.002z"/>
	<path style="fill:#37BBDA;" d="M191.035,293.502H48.323c6.679,37.238,23.129,71.088,46.602,98.799l123.563-71.34
		C207.108,314.375,197.619,304.883,191.035,293.502z"/>
	<path style="fill:#69DAF4;" d="M218.488,320.961l-123.563,71.34c23.689,27.969,54.531,49.684,89.702,62.324l71.374-123.623
		C242.335,331.002,229.523,327.346,218.488,320.961z"/>
	<path style="fill:#37BBDA;" d="M256.001,331.002l-71.374,123.623c22.293,8.012,46.324,12.377,71.374,12.377
		c12.798,0,25.33-1.139,37.5-3.322V320.969C282.47,327.35,269.662,331.002,256.001,331.002z"/>
	<path style="fill:#69DAF4;" d="M293.501,320.969V463.68c37.239-6.68,71.088-23.129,98.8-46.602l-17.844-30.906l-53.497-92.658
		C314.374,304.895,304.883,314.385,293.501,320.969z"/>
	<path style="fill:#37BBDA;" d="M320.96,293.514l53.497,92.658l17.844,30.906c27.968-23.689,49.684-54.531,62.324-89.703
		l-123.624-71.373C331.001,269.668,327.346,282.481,320.96,293.514z"/>
	<path style="fill:#69DAF4;" d="M331.001,256.002l123.624,71.373c8.012-22.291,12.377-46.322,12.377-71.373
		c0-12.799-1.14-25.33-3.322-37.5H320.968C327.35,229.533,331.001,242.342,331.001,256.002z"/>
	<path style="fill:#37BBDA;" d="M320.968,218.502H463.68c-6.68-37.238-23.129-71.088-46.602-98.799l-123.564,71.34
		C304.895,197.629,314.384,207.119,320.968,218.502z"/>
	<path style="fill:#69DAF4;" d="M293.514,191.043l123.564-71.34c-23.689-27.969-54.531-49.686-89.703-62.324l-71.374,123.623
		C269.667,181.002,282.479,184.656,293.514,191.043z"/>
</g>
<path d="M256.001,0C114.842,0,0,114.842,0,256.002c0,141.159,114.842,256,256.001,256s256.001-114.841,256.001-256
	C512.002,114.842,397.16,0,256.001,0z M256.001,492.002C125.87,492.002,20,386.133,20,256.002C20,125.87,125.87,20,256.001,20
	s236.001,105.87,236.001,236.002C492.002,386.133,386.132,492.002,256.001,492.002z"/>
<path d="M256.001,206.002c-27.57,0-50,22.43-50,50s22.43,50,50,50s50-22.43,50-50S283.571,206.002,256.001,206.002z
	 M256.001,286.002c-16.542,0-30-13.458-30-30s13.458-30,30-30s30,13.458,30,30S272.543,286.002,256.001,286.002z"/>
<path d="M464.336,329.741c8.191-23.073,12.666-47.892,12.666-73.739c0-13.094-1.152-25.922-3.346-38.396
	c-0.053-0.593-0.163-1.168-0.315-1.727c-6.997-37.993-23.74-72.611-47.536-101.162c-0.007-0.014-0.013-0.027-0.021-0.041
	c-0.616-1.066-1.406-1.968-2.304-2.707c-24.464-28.408-56.013-50.548-91.878-63.645c-0.603-0.282-1.221-0.498-1.847-0.652
	C306.679,39.477,281.854,35,256.001,35c-13.1,0-25.935,1.152-38.413,3.349c-0.576,0.053-1.134,0.159-1.677,0.306
	c-38.009,6.993-72.641,23.742-101.201,47.547c-0.011,0.006-0.022,0.011-0.034,0.018c-1.064,0.615-1.964,1.402-2.703,2.299
	c-28.409,24.464-50.55,56.012-63.648,91.879c-0.283,0.605-0.5,1.227-0.654,1.855C39.477,205.328,35,230.15,35,256.002
	c0,13.096,1.152,25.928,3.348,38.404c0.053,0.586,0.161,1.153,0.311,1.705c6.995,37.998,23.74,72.621,47.538,101.175
	c0.008,0.014,0.014,0.028,0.021,0.042c0.608,1.054,1.392,1.938,2.274,2.673c24.49,28.448,56.084,50.613,92.003,63.711
	c0.573,0.262,1.157,0.472,1.751,0.618c23.078,8.195,47.902,12.672,73.755,12.672c13.094,0,25.922-1.152,38.396-3.346
	c0.594-0.053,1.17-0.163,1.728-0.314c37.992-6.998,72.611-23.741,101.162-47.537c0.014-0.008,0.027-0.012,0.04-0.02
	c1.068-0.617,1.97-1.408,2.711-2.307c28.403-24.463,50.541-56.008,63.638-91.869C463.962,331,464.181,330.375,464.336,329.741z
	 M340.773,250.097c-0.519-7.507-2.015-14.745-4.363-21.595h118.702c1.236,8.994,1.89,18.172,1.89,27.5
	c0,19.618-2.838,38.584-8.103,56.521L340.773,250.097z M344.065,408.717c1.92,2.93,5.115,4.52,8.375,4.52
	c1.879,0,3.78-0.529,5.471-1.636c4.767-3.123,9.404-6.488,13.88-10.048l7.538,13.056c-22.071,17.199-47.811,29.894-75.827,36.708
	V326.459c6.117-4.137,11.652-9.065,16.497-14.61l41.668,72.169c-4.705,3.882-9.629,7.521-14.717,10.854
	C342.33,397.898,341.038,404.097,344.065,408.717z M256.001,321.002c-35.841,0-65-29.159-65-65
	c0-35.831,29.144-64.983,64.972-64.999c0.006,0,0.012,0.001,0.019,0.001c0.008,0,0.017-0.002,0.024-0.002
	c35.834,0.008,64.985,29.164,64.985,65C321.001,291.843,291.842,321.002,256.001,321.002z M60.685,303.502h124.859
	c4.137,6.117,9.064,11.652,14.61,16.497l-102.76,59.329C80.193,357.258,67.5,331.52,60.685,303.502z M171.23,261.907
	c0.518,7.507,2.014,14.745,4.362,21.595H56.89c-1.236-8.994-1.89-18.172-1.89-27.5c0-19.619,2.838-38.585,8.104-56.523
	L171.23,261.907z M167.939,103.289c-3.024-4.619-9.224-5.914-13.845-2.888c-4.765,3.12-9.403,6.485-13.883,10.048l-7.537-13.056
	c22.07-17.2,47.81-29.895,75.827-36.709v124.859c-6.118,4.138-11.653,9.066-16.498,14.611l-41.668-72.17
	c4.71-3.886,9.633-7.524,14.716-10.852C169.672,114.108,170.965,107.91,167.939,103.289z M451.317,208.502H326.459
	c-4.139-6.117-9.066-11.652-14.612-16.498l102.763-59.328C431.809,154.746,444.503,180.484,451.317,208.502z M401.308,117.261
	l-108.03,62.37c-6.536-3.203-13.541-5.586-20.881-7.026l59.339-102.778C358.197,80.631,381.865,96.908,401.308,117.261z
	 M312.523,63.103l-62.428,108.128c-7.506,0.518-14.744,2.014-21.594,4.362V56.89C237.495,55.654,246.672,55,256,55
	C275.619,55,294.585,57.838,312.523,63.103z M117.26,110.695l11.657,20.19c0.015,0.024,0.027,0.049,0.042,0.073l50.672,87.767
	c-3.203,6.537-5.587,13.541-7.027,20.882l-102.777-59.34C80.631,153.805,96.907,130.137,117.26,110.695z M110.695,394.742
	l108.028-62.371c6.536,3.204,13.541,5.588,20.882,7.028l-59.338,102.776C153.805,431.372,130.137,415.096,110.695,394.742z
	 M199.48,448.899l62.427-108.126c7.507-0.517,14.745-2.014,21.595-4.363v118.702c-8.994,1.236-18.172,1.89-27.5,1.89
	C236.383,457.002,217.417,454.164,199.48,448.899z M394.742,401.308l-11.654-20.185c-0.016-0.027-0.031-0.057-0.049-0.084
	l-50.668-87.76c3.203-6.537,5.587-13.541,7.027-20.882l102.777,59.338C431.372,358.197,415.095,381.865,394.742,401.308z"/>
<path d="M185.54,104.726c1.344,0,2.709-0.272,4.018-0.848l0.387-0.168c5.057-2.222,7.355-8.122,5.133-13.178
	c-2.223-5.058-8.124-7.355-13.178-5.133l-0.387,0.168c-5.057,2.222-7.354,8.122-5.133,13.178
	C178.026,102.493,181.693,104.726,185.54,104.726z"/>
<path d="M322.445,408.124l-0.388,0.17c-5.057,2.222-7.355,8.122-5.133,13.178c1.646,3.748,5.313,5.98,9.16,5.98
	c1.344,0,2.709-0.272,4.018-0.848l0.388-0.17c5.057-2.222,7.354-8.122,5.133-13.178C333.4,408.198,327.498,405.9,322.445,408.124z"
	/>
<g>
</g>
<g>
</g>
<g>
</g>
<g>
</g>
<g>
</g>
<g>
</g>
<g>
</g>
<g>
</g>
<g>
</g>
<g>
</g>
<g>
</g>
<g>
</g>
<g>
</g>
<g>
</g>
<g>
</g>
</svg>
