<svg height="512pt" viewBox="-35 0 512 512" width="512pt" xmlns="http://www.w3.org/2000/svg"><path d="m248.800781 265.03125 36.347657 239.363281h-145.722657l32.828125-216.21875 40.035156-44.222656h57.59375zm0 0" fill="#ccc"/><g fill="#45c1ed"><path d="m212.289062 243.953125-91.375-47.863281 54.386719-188.484375h36.988281zm0 0"/><path d="m212.289062 243.953125 4.238282 103.066406-190.429688 47.140625-18.492187-32.035156zm0 0"/><path d="m212.289062 243.953125 87.140626-55.203125 136.035156 141.34375-18.492188 32.03125zm0 0"/></g><path d="m176.605469 504.394531 24.332031-129.800781 61.15625-22.03125 23.054688 151.832031zm0 0" fill="#e6e6e6"/><path d="m440.945312 324.824219-136.039062-141.347657c-2.503906-2.601562-6.492188-3.082031-9.546875-1.148437l-75.464844 47.804687v-134.625c0-4.199218-3.40625-7.601562-7.605469-7.601562-4.199218 0-7.605468 3.402344-7.605468 7.601562v135.878907l-74.746094-39.152344 51.082031-177.027344h23.664063v49.882813c0 4.199218 3.40625 7.605468 7.605468 7.605468 4.199219 0 7.601563-3.40625 7.601563-7.605468v-57.484375c0-4.199219-3.402344-7.605469-7.601563-7.605469h-36.988281c-3.386719 0-6.367187 2.242188-7.304687 5.496094l-54.390625 188.484375c-1 3.46875.578125 7.167969 3.777343 8.84375l79.136719 41.449219-24.363281 14.066406c-.011719.011718-.027344.019531-.042969.027344l-168.308593 97.175781c-3.636719 2.097656-4.882813 6.75-2.785157 10.386719l18.492188 32.03125c1.382812 2.390624 3.914062 3.800781 6.585937 3.800781.605469 0 1.21875-.070313 1.828125-.222657l124.089844-30.71875-5.71875 37.664063c-13.964844-5.625-27.300781-13.074219-39.703125-22.289063-3.367188-2.503906-8.132812-1.804687-10.636719 1.566407-2.507812 3.371093-1.804687 8.136719 1.566407 10.640625 14.449218 10.734375 30.058593 19.269531 46.429687 25.511718l-12.046875 79.339844c-.332031 2.191406.308594 4.417969 1.75 6.097656 1.445312 1.679688 3.550781 2.648438 5.769531 2.648438h145.722657c2.214843 0 4.320312-.96875 5.765624-2.648438 1.445313-1.679687 2.085938-3.90625 1.75-6.097656l-3.769531-24.832031c-.628906-4.152344-4.511719-7.007813-8.660156-6.375-4.148437.628906-7.003906 4.507813-6.375 8.660156l2.441406 16.085938h-128.03125l10.320313-67.964844c17.230468 5.015625 35.140625 7.582031 53.292968 7.582031 9.441407 0 18.957032-.695312 28.46875-2.09375 8.730469-1.289062 17.28125-3.160156 25.621094-5.5625l2.808594 18.496094c.570312 3.765625 3.8125 6.464844 7.507812 6.464844.378907 0 .761719-.027344 1.152344-.089844 4.152344-.628906 7.003906-4.503906 6.375-8.65625l-3.199218-21.078125c34.097656-12.871094 63.863281-35.21875 86.121093-65.175781 2.503907-3.371094 1.804688-8.132813-1.566406-10.636719-3.375-2.503906-8.136719-1.804687-10.640625 1.566406-19.828125 26.6875-46.132812 46.816407-76.253906 58.835938l-19.582032-128.957031 154.476563 89.1875c1.167969.675781 2.480469 1.019531 3.804687 1.019531.65625 0 1.320313-.085938 1.964844-.257813 1.949219-.523437 3.609375-1.796875 4.617188-3.542968l18.492187-32.03125c1.695313-2.933594 1.242188-6.636719-1.105469-9.074219zm-422.953124 40.085937 187.214843-108.089844 3.464844 84.308594-178.847656 44.273438zm245.675781 48.675782c-8.289063 2.492187-16.816407 4.398437-25.535157 5.683593-26.289062 3.875-52.542968 1.871094-77.238281-5.625l7.105469-46.777343 50.351562-12.464844c3.507813-.871094 5.917969-4.085938 5.773438-7.695313l-3.671875-89.257812 21.378906 12.339843zm150.523437-61.847657-187.214844-108.085937 71.277344-45.15625 127.765625 132.75zm0 0"/><path d="m237.429688 68.5c29.015624 4.128906 56.871093 15.613281 80.550781 33.210938 48.488281 36.03125 75.089843 93.578124 71.15625 153.941406-.277344 4.191406 2.902343 7.808594 7.09375 8.082031.167969.011719.332031.019531.5.019531 3.972656 0 7.320312-3.089844 7.582031-7.113281 4.269531-65.535156-24.613281-128.015625-77.261719-167.136719-25.710937-19.105468-55.957031-31.574218-87.476562-36.0625-4.152344-.589844-8.007813 2.300782-8.597657 6.457032-.59375 4.160156 2.296876 8.007812 6.453126 8.601562zm0 0"/><path d="m42.082031 323.636719c.984375 0 1.988281-.191407 2.953125-.601563 3.871094-1.632812 5.679688-6.09375 4.046875-9.960937-11.800781-27.945313-16.277343-58.648438-12.9375-88.796875 3.4375-31.046875 15.160157-60.792969 33.902344-86.019532 15.996094-21.527343 36.046875-38.726562 59.597656-51.113281 3.71875-1.957031 5.144531-6.554687 3.191407-10.269531-1.957032-3.71875-6.554688-5.144531-10.269532-3.191406-25.585937 13.457031-47.359375 32.132812-64.726562 55.503906-20.347656 27.386719-33.078125 59.691406-36.8125 93.417969-3.621094 32.722656 1.234375 66.050781 14.046875 96.382812 1.222656 2.90625 4.042969 4.648438 7.007812 4.648438zm0 0"/></svg>